# xmcd CD database file
#
# Track frame offsets:
#	183
#	16975
#	30663
#	44493
#	56585
#	69085
#	80423
#	101115
#	112470
#	124463
#	134000
#	160245
#	178718
#	191488
#	209870
#	227128
#	238638
#	252298
#
# Disc length: 3514 seconds
#
# Revision: 0
# Processed by: cddbd v1.4PL0 Copyright (c) Steve Scherf et al.
# Submitted via: CDex 1.50beta10
#
DISCID=0f0db812
DTITLE=Various Artist - Red Stripe Blue Tones
DYEAR=1993
DGENRE=Blues
TTITLE0=Robert Johnson - Crossroad Blues
TTITLE1=Big Bill Broonzy - Living on Easy Street
TTITLE2=Howlin' Wolf - Smokestack Lightnin'
TTITLE3=Jimmy Rogers - Blues Leave Me Alone
TTITLE4=Muddy Waters - Trouble No More
TTITLE5=Albert King - California Blues
TTITLE6=John Lee Hooker - Boom Boom
TTITLE7=Lightning Hopkins - Morning Blues
TTITLE8=Elmore James - Shake Your Money Maker
TTITLE9=Jimmy Reed - Bright Lights Big City
TTITLE10=Clarence "Gatemouth" Brown - Ninety Nine
TTITLE11=Eric Clapton, Howlin Wolf - Little Red Rooster
TTITLE12=Walter "Wolfman" Washington - Good and Juicy
TTITLE13=Robert Cray - Too Many Crooks
TTITLE14=John Mayall's Bluesbreakers I Ain't Got You
TTITLE15=Jimmy Witherspoon - St. Louis Blues
TTITLE16=Memphis Slim - Marack
TTITLE17=Blind Willie Brown - Lord, I just Can't Keep From crying
EXTD=YEAR: 1993
EXTT0=
EXTT1=
EXTT2=
EXTT3=
EXTT4=
EXTT5=
EXTT6=
EXTT7=
EXTT8=
EXTT9=
EXTT10=
EXTT11=
EXTT12=
EXTT13=
EXTT14=
EXTT15=
EXTT16=
EXTT17=
PLAYORDER=
